<svg width="51" height="51" viewBox="0 0 51 51" fill="none" xmlns="http://www.w3.org/2000/svg">
<circle cx="25.5474" cy="25.5474" r="24.8107" fill="url(#paint0_linear_2001_111)" stroke="url(#paint1_linear_2001_111)" stroke-width="0.526653"/>
<path fill-rule="evenodd" clip-rule="evenodd" d="M25.5165 18.2516C22.0939 18.2516 19.9554 19.9736 19.0993 23.4176C20.3829 21.6956 21.8802 21.05 23.5912 21.4802C24.5674 21.7257 25.2655 22.4385 26.0376 23.2277C27.2959 24.5129 28.7525 26.0002 31.9332 26.0002C35.3552 26.0002 37.4943 24.2781 38.3498 20.8346C37.0668 22.5566 35.5695 23.2023 33.8585 22.7715C32.8817 22.5261 32.1836 21.8132 31.4116 21.0245C30.1532 19.7384 28.6972 18.2516 25.5165 18.2516ZM19.0993 26.0002C15.6773 26.0002 13.5382 27.7222 12.6827 31.1662C13.9662 29.4442 15.4635 28.7986 17.174 29.2288C18.1508 29.4742 18.8489 30.1871 19.6209 30.9763C20.8793 32.2614 22.3353 33.7487 25.5165 33.7487C28.9386 33.7487 31.0776 32.0272 31.9332 28.5832C30.6496 30.3052 29.1523 30.9508 27.4413 30.5206C26.4651 30.2747 25.767 29.5618 24.9949 28.7731C23.7366 27.488 22.28 26.0002 19.0993 26.0002Z" fill="#38BDF8"/>
<defs>
<linearGradient id="paint0_linear_2001_111" x1="11.1254" y1="1" x2="48.4914" y2="9.89991" gradientUnits="userSpaceOnUse">
<stop stop-color="#04071D"/>
<stop offset="1" stop-color="#0C0E23"/>
</linearGradient>
<linearGradient id="paint1_linear_2001_111" x1="25.5474" y1="1" x2="25.5474" y2="50.0948" gradientUnits="userSpaceOnUse">
<stop stop-color="#66699C" stop-opacity="0.43"/>
<stop offset="1" stop-color="#363749" stop-opacity="0.49"/>
</linearGradient>
</defs>
</svg>
