<svg width="51" height="51" viewBox="0 0 51 51" fill="none" xmlns="http://www.w3.org/2000/svg">
<circle cx="25.5474" cy="25.5474" r="24.8107" fill="url(#paint0_linear_2001_115)" stroke="url(#paint1_linear_2001_115)" stroke-width="0.526653"/>
<g clip-path="url(#clip0_2001_115)">
<path d="M34.4001 14.0001H17.6001C15.6119 14.0001 14.0001 15.6119 14.0001 17.6001V34.4001C14.0001 36.3883 15.6119 38.0001 17.6001 38.0001H34.4001C36.3883 38.0001 38.0001 36.3883 38.0001 34.4001V17.6001C38.0001 15.6119 36.3883 14.0001 34.4001 14.0001Z" fill="#3178C6"/>
<path d="M24.9221 27.3127H27.9221V25.3909H19.5315V27.3127H22.5315V35.8909H24.9221V27.3127ZM28.8596 35.4221C29.2393 35.619 29.7034 35.7643 30.219 35.8627C30.7346 35.9612 31.2971 36.0081 31.8596 36.0081C32.4221 36.0081 32.9377 35.9565 33.4534 35.8487C33.969 35.7409 34.3909 35.5627 34.7659 35.3331C35.1456 35.0846 35.469 34.7706 35.6565 34.3487C35.844 33.9268 35.9893 33.4581 35.9893 32.8487C35.9893 32.4221 35.9237 32.0518 35.7971 31.7237C35.6706 31.3956 35.4877 31.1143 35.2346 30.8799C34.9956 30.6315 34.719 30.4112 34.3909 30.2237C34.0627 30.0362 33.6877 29.8393 33.2659 29.6612C32.9565 29.5346 32.7034 29.4127 32.4221 29.2909C32.1784 29.169 31.9674 29.0471 31.8127 28.9252C31.6393 28.7987 31.5081 28.6674 31.4143 28.5315C31.3206 28.3909 31.2737 28.2362 31.2737 28.0627C31.2737 27.9034 31.3154 27.7581 31.4002 27.6268C31.4851 27.4956 31.6018 27.3877 31.7518 27.294C31.9018 27.2002 32.0893 27.1299 32.3143 27.0784C32.5346 27.0268 32.7784 27.0034 33.0643 27.0034C33.2612 27.0034 33.4674 27.0179 33.6737 27.0474C33.8893 27.077 34.1096 27.1224 34.3299 27.1834C34.5502 27.2443 34.7659 27.3193 34.9862 27.4131C35.1924 27.5068 35.3846 27.6146 35.5487 27.7365V25.5334C35.1924 25.3974 34.7987 25.2943 34.3768 25.2287C33.9549 25.1631 33.4862 25.1302 32.9237 25.1302C32.3612 25.1302 31.8456 25.1912 31.3299 25.3084C30.8143 25.4256 30.3924 25.6131 30.0174 25.8709C29.6377 26.124 29.3612 26.4334 29.1268 26.8552C28.9065 27.249 28.7987 27.699 28.7987 28.2615C28.7987 28.9646 29.0002 29.574 29.4081 30.0427C29.8112 30.5584 30.4393 30.9334 31.2362 31.3084C31.5596 31.4396 31.8456 31.5709 32.1268 31.6974C32.4081 31.824 32.6424 31.9552 32.8299 32.0912C33.0315 32.2271 33.1909 32.3771 33.2987 32.5365C33.4159 32.6959 33.4768 32.8834 33.4768 33.099C33.4768 33.249 33.4402 33.3896 33.369 33.5209C33.2977 33.6521 33.1862 33.7646 33.0362 33.8584C32.8862 33.9521 32.7034 34.0271 32.4737 34.0834C32.2534 34.1349 32.0049 34.1631 31.6768 34.1631C31.1612 34.1631 30.6456 34.074 30.1768 33.8959C29.6612 33.7177 29.1924 33.4506 28.8596 33.1721V35.4221Z" fill="white"/>
</g>
<defs>
<linearGradient id="paint0_linear_2001_115" x1="11.1254" y1="1" x2="48.4914" y2="9.89991" gradientUnits="userSpaceOnUse">
<stop stop-color="#04071D"/>
<stop offset="1" stop-color="#0C0E23"/>
</linearGradient>
<linearGradient id="paint1_linear_2001_115" x1="25.5474" y1="1" x2="25.5474" y2="50.0948" gradientUnits="userSpaceOnUse">
<stop stop-color="#66699C" stop-opacity="0.43"/>
<stop offset="1" stop-color="#363749" stop-opacity="0.49"/>
</linearGradient>
<clipPath id="clip0_2001_115">
<rect width="24" height="24" fill="white" transform="translate(14.0001 14.0001)"/>
</clipPath>
</defs>
</svg>
