<svg width="17" height="16" viewBox="0 0 17 16" fill="none" xmlns="http://www.w3.org/2000/svg">
<path d="M8.43404 5.70908C8.13319 5.70908 7.83527 5.76834 7.55732 5.88348C7.27936 5.99861 7.0268 6.16736 6.81406 6.3801C6.60132 6.59284 6.43257 6.8454 6.31744 7.12336C6.2023 7.40131 6.14304 7.69923 6.14304 8.00008C6.14304 8.30094 6.2023 8.59886 6.31744 8.87681C6.43257 9.15477 6.60132 9.40733 6.81406 9.62007C7.0268 9.8328 7.27936 10.0016 7.55732 10.1167C7.83527 10.2318 8.13319 10.2911 8.43404 10.2911C9.04165 10.2911 9.62438 10.0497 10.054 9.62007C10.4837 9.19042 10.725 8.60769 10.725 8.00008C10.725 7.39247 10.4837 6.80975 10.054 6.3801C9.62438 5.95046 9.04165 5.70908 8.43404 5.70908ZM8.43404 4.18108C8.94083 4.17288 9.44418 4.26562 9.91477 4.45389C10.3854 4.64215 10.8138 4.92219 11.1751 5.27767C11.5363 5.63316 11.8233 6.05699 12.0191 6.52447C12.215 6.99195 12.3158 7.49373 12.3158 8.00058C12.3158 8.50743 12.215 9.00922 12.0191 9.4767C11.8233 9.94418 11.5363 10.368 11.1751 10.7235C10.8138 11.079 10.3854 11.359 9.91477 11.5473C9.44418 11.7355 8.94083 11.8283 8.43404 11.8201C7.42092 11.8201 6.44928 11.4176 5.7329 10.7012C5.01651 9.98484 4.61404 9.01321 4.61404 8.00008C4.61404 6.98696 5.01651 6.01532 5.7329 5.29894C6.44928 4.58255 7.42092 4.18108 8.43404 4.18108ZM13.399 3.99008C13.4032 4.11803 13.3816 4.2455 13.3355 4.36493C13.2894 4.48435 13.2197 4.59328 13.1307 4.68526C13.0416 4.77723 12.935 4.85036 12.8171 4.9003C12.6993 4.95025 12.5726 4.97598 12.4445 4.97598C12.3165 4.97598 12.1898 4.95025 12.072 4.9003C11.9541 4.85036 11.8475 4.77723 11.7584 4.68526C11.6694 4.59328 11.5997 4.48435 11.5536 4.36493C11.5075 4.2455 11.4859 4.11803 11.49 3.99008C11.49 3.7368 11.5907 3.49389 11.7698 3.3148C11.9489 3.1357 12.1918 3.03508 12.445 3.03508C12.6983 3.03508 12.9412 3.1357 13.1203 3.3148C13.2994 3.49389 13.399 3.7368 13.399 3.99008ZM8.43404 1.89008C6.54404 1.89008 6.23604 1.89408 5.35704 1.93308C4.75704 1.96208 4.35604 2.04208 3.98304 2.18708C3.65204 2.31508 3.41304 2.46908 3.15804 2.72408C2.91804 2.95508 2.73504 3.23708 2.62004 3.54908C2.47504 3.92308 2.39504 4.32408 2.36704 4.92308C2.32704 5.76608 2.32304 6.06108 2.32304 8.00008C2.32304 9.89008 2.32804 10.1991 2.36704 11.0781C2.39604 11.6761 2.47604 12.0781 2.62004 12.4511C2.75004 12.7831 2.90304 13.0221 3.15704 13.2761C3.41404 13.5321 3.65304 13.6861 3.98204 13.8131C4.35904 13.9591 4.76104 14.0401 5.35704 14.0671C6.20004 14.1071 6.49504 14.1111 8.43404 14.1111C10.324 14.1111 10.633 14.1061 11.512 14.0671C12.109 14.0391 12.512 13.9591 12.885 13.8141C13.215 13.6851 13.456 13.5321 13.71 13.2781C13.967 13.0201 14.12 12.7811 14.247 12.4531C14.393 12.0761 14.474 11.6731 14.501 11.0781C14.541 10.2351 14.545 9.94008 14.545 8.00008C14.545 6.11008 14.54 5.80208 14.501 4.92308C14.473 4.32508 14.393 3.92208 14.247 3.54908C14.1319 3.23741 13.9484 2.9555 13.71 2.72408C13.4792 2.48479 13.1971 2.30086 12.885 2.18608C12.511 2.04108 12.109 1.96108 11.512 1.93308C10.669 1.89308 10.374 1.89008 8.43404 1.89008ZM8.43404 0.361084C10.51 0.361084 10.769 0.369084 11.583 0.407084C12.397 0.445084 12.95 0.573084 13.438 0.762084C13.942 0.956084 14.367 1.21908 14.791 1.64308C15.18 2.02508 15.481 2.48708 15.672 2.99708C15.861 3.48308 15.989 4.03708 16.027 4.85108C16.063 5.66608 16.073 5.92508 16.073 8.00108C16.073 10.0761 16.065 10.3351 16.027 11.1491C15.989 11.9631 15.861 12.5161 15.672 13.0041C15.481 13.5141 15.18 13.9761 14.792 14.3571C14.41 14.7455 13.9479 15.0461 13.438 15.2381C12.951 15.4271 12.396 15.5551 11.583 15.5931C10.769 15.6291 10.51 15.6391 8.43404 15.6391C6.35904 15.6391 6.10004 15.6311 5.28504 15.5931C4.47204 15.5551 3.91804 15.4271 3.43104 15.2381C2.92095 15.047 2.45883 14.7466 2.07704 14.3581C1.68876 13.9761 1.38845 13.514 1.19704 13.0041C1.00704 12.5171 0.879044 11.9621 0.841044 11.1491C0.805044 10.3351 0.795044 10.0761 0.795044 8.00008C0.795044 5.92508 0.803044 5.66608 0.841044 4.85108C0.879044 4.03708 1.00704 3.48408 1.19604 2.99708C1.38804 2.48708 1.68804 2.02508 2.07704 1.64308C2.45891 1.25465 2.92101 0.954317 3.43104 0.763084C3.91804 0.573084 4.47104 0.445084 5.28504 0.407084C6.10004 0.371084 6.35904 0.361084 8.43504 0.361084H8.43404Z" fill="white"/>
</svg>
